<mxfile host="app.diagrams.net" modified="2023-05-07T05:40:04.896Z" agent="Mozilla/5.0 (Windows NT 10.0; Win64; x64) AppleWebKit/537.36 (KHTML, like Gecko) Chrome/113.0.0.0 Safari/537.36" etag="C183aFcDaoynz4VyEhJ7" version="21.2.9" type="github">
  <diagram name="Page-1" id="2YBvvXClWsGukQMizWep">
    <mxGraphModel dx="1430" dy="770" grid="1" gridSize="10" guides="1" tooltips="1" connect="1" arrows="1" fold="1" page="1" pageScale="1" pageWidth="850" pageHeight="1100" math="0" shadow="0">
      <root>
        <mxCell id="0" />
        <mxCell id="1" parent="0" />
        <mxCell id="aM9ryv3xv72pqoxQDRHE-1" value="WebAdmin" style="shape=umlLifeline;perimeter=lifelinePerimeter;whiteSpace=wrap;html=1;container=0;dropTarget=0;collapsible=0;recursiveResize=0;outlineConnect=0;portConstraint=eastwest;newEdgeStyle={&quot;edgeStyle&quot;:&quot;elbowEdgeStyle&quot;,&quot;elbow&quot;:&quot;vertical&quot;,&quot;curved&quot;:0,&quot;rounded&quot;:0};" parent="1" vertex="1">
          <mxGeometry x="40" y="40" width="100" height="560" as="geometry" />
        </mxCell>
        <mxCell id="aM9ryv3xv72pqoxQDRHE-2" value="" style="html=1;points=[];perimeter=orthogonalPerimeter;outlineConnect=0;targetShapes=umlLifeline;portConstraint=eastwest;newEdgeStyle={&quot;edgeStyle&quot;:&quot;elbowEdgeStyle&quot;,&quot;elbow&quot;:&quot;vertical&quot;,&quot;curved&quot;:0,&quot;rounded&quot;:0};" parent="aM9ryv3xv72pqoxQDRHE-1" vertex="1">
          <mxGeometry x="45" y="70" width="10" height="420" as="geometry" />
        </mxCell>
        <mxCell id="aM9ryv3xv72pqoxQDRHE-3" value="dispatch" style="html=1;verticalAlign=bottom;startArrow=oval;endArrow=block;startSize=8;edgeStyle=elbowEdgeStyle;elbow=vertical;curved=0;rounded=0;" parent="aM9ryv3xv72pqoxQDRHE-1" target="aM9ryv3xv72pqoxQDRHE-2" edge="1">
          <mxGeometry relative="1" as="geometry">
            <mxPoint x="-15" y="70" as="sourcePoint" />
          </mxGeometry>
        </mxCell>
        <mxCell id="aM9ryv3xv72pqoxQDRHE-5" value="WeChat" style="shape=umlLifeline;perimeter=lifelinePerimeter;whiteSpace=wrap;html=1;container=0;dropTarget=0;collapsible=0;recursiveResize=0;outlineConnect=0;portConstraint=eastwest;newEdgeStyle={&quot;edgeStyle&quot;:&quot;elbowEdgeStyle&quot;,&quot;elbow&quot;:&quot;vertical&quot;,&quot;curved&quot;:0,&quot;rounded&quot;:0};" parent="1" vertex="1">
          <mxGeometry x="170" y="40" width="100" height="560" as="geometry" />
        </mxCell>
        <mxCell id="aM9ryv3xv72pqoxQDRHE-6" value="" style="html=1;points=[];perimeter=orthogonalPerimeter;outlineConnect=0;targetShapes=umlLifeline;portConstraint=eastwest;newEdgeStyle={&quot;edgeStyle&quot;:&quot;elbowEdgeStyle&quot;,&quot;elbow&quot;:&quot;vertical&quot;,&quot;curved&quot;:0,&quot;rounded&quot;:0};" parent="aM9ryv3xv72pqoxQDRHE-5" vertex="1">
          <mxGeometry x="45" y="133" width="10" height="60" as="geometry" />
        </mxCell>
        <mxCell id="rhNAa3XnDCW6CMJi3sc1-9" value="" style="html=1;points=[];perimeter=orthogonalPerimeter;outlineConnect=0;targetShapes=umlLifeline;portConstraint=eastwest;newEdgeStyle={&quot;edgeStyle&quot;:&quot;elbowEdgeStyle&quot;,&quot;elbow&quot;:&quot;vertical&quot;,&quot;curved&quot;:0,&quot;rounded&quot;:0};" vertex="1" parent="aM9ryv3xv72pqoxQDRHE-5">
          <mxGeometry x="45" y="203" width="10" height="150" as="geometry" />
        </mxCell>
        <mxCell id="aM9ryv3xv72pqoxQDRHE-7" value="/auth/miniapp/qrcode?scene=xx" style="html=1;verticalAlign=bottom;endArrow=block;edgeStyle=elbowEdgeStyle;elbow=vertical;curved=0;rounded=0;" parent="1" source="aM9ryv3xv72pqoxQDRHE-2" target="vACXPowqRHTn4efOU8du-2" edge="1">
          <mxGeometry x="-0.0909" relative="1" as="geometry">
            <mxPoint x="195" y="130" as="sourcePoint" />
            <Array as="points">
              <mxPoint x="180" y="120" />
            </Array>
            <mxPoint as="offset" />
          </mxGeometry>
        </mxCell>
        <mxCell id="aM9ryv3xv72pqoxQDRHE-8" value="return imageData:QR" style="html=1;verticalAlign=bottom;endArrow=open;dashed=1;endSize=8;edgeStyle=elbowEdgeStyle;elbow=vertical;curved=0;rounded=0;" parent="1" source="vACXPowqRHTn4efOU8du-2" target="aM9ryv3xv72pqoxQDRHE-2" edge="1">
          <mxGeometry relative="1" as="geometry">
            <mxPoint x="195" y="205" as="targetPoint" />
            <Array as="points">
              <mxPoint x="180" y="150" />
              <mxPoint x="190" y="280" />
            </Array>
          </mxGeometry>
        </mxCell>
        <mxCell id="vACXPowqRHTn4efOU8du-1" value="service-auth" style="shape=umlLifeline;perimeter=lifelinePerimeter;whiteSpace=wrap;html=1;container=0;dropTarget=0;collapsible=0;recursiveResize=0;outlineConnect=0;portConstraint=eastwest;newEdgeStyle={&quot;edgeStyle&quot;:&quot;elbowEdgeStyle&quot;,&quot;elbow&quot;:&quot;vertical&quot;,&quot;curved&quot;:0,&quot;rounded&quot;:0};" parent="1" vertex="1">
          <mxGeometry x="375" y="40" width="100" height="500" as="geometry" />
        </mxCell>
        <mxCell id="vACXPowqRHTn4efOU8du-2" value="" style="html=1;points=[];perimeter=orthogonalPerimeter;outlineConnect=0;targetShapes=umlLifeline;portConstraint=eastwest;newEdgeStyle={&quot;edgeStyle&quot;:&quot;elbowEdgeStyle&quot;,&quot;elbow&quot;:&quot;vertical&quot;,&quot;curved&quot;:0,&quot;rounded&quot;:0};" parent="vACXPowqRHTn4efOU8du-1" vertex="1">
          <mxGeometry x="45" y="70" width="10" height="50" as="geometry" />
        </mxCell>
        <mxCell id="rhNAa3XnDCW6CMJi3sc1-2" value="" style="html=1;points=[];perimeter=orthogonalPerimeter;outlineConnect=0;targetShapes=umlLifeline;portConstraint=eastwest;newEdgeStyle={&quot;edgeStyle&quot;:&quot;elbowEdgeStyle&quot;,&quot;elbow&quot;:&quot;vertical&quot;,&quot;curved&quot;:0,&quot;rounded&quot;:0};" vertex="1" parent="vACXPowqRHTn4efOU8du-1">
          <mxGeometry x="45" y="395" width="10" height="50" as="geometry" />
        </mxCell>
        <mxCell id="rhNAa3XnDCW6CMJi3sc1-5" value="" style="html=1;points=[];perimeter=orthogonalPerimeter;outlineConnect=0;targetShapes=umlLifeline;portConstraint=eastwest;newEdgeStyle={&quot;edgeStyle&quot;:&quot;elbowEdgeStyle&quot;,&quot;elbow&quot;:&quot;vertical&quot;,&quot;curved&quot;:0,&quot;rounded&quot;:0};" vertex="1" parent="vACXPowqRHTn4efOU8du-1">
          <mxGeometry x="45" y="148" width="10" height="35" as="geometry" />
        </mxCell>
        <mxCell id="rhNAa3XnDCW6CMJi3sc1-11" value="" style="html=1;points=[];perimeter=orthogonalPerimeter;outlineConnect=0;targetShapes=umlLifeline;portConstraint=eastwest;newEdgeStyle={&quot;edgeStyle&quot;:&quot;elbowEdgeStyle&quot;,&quot;elbow&quot;:&quot;vertical&quot;,&quot;curved&quot;:0,&quot;rounded&quot;:0};" vertex="1" parent="vACXPowqRHTn4efOU8du-1">
          <mxGeometry x="45" y="215.5" width="10" height="35" as="geometry" />
        </mxCell>
        <mxCell id="rhNAa3XnDCW6CMJi3sc1-15" value="" style="html=1;points=[];perimeter=orthogonalPerimeter;outlineConnect=0;targetShapes=umlLifeline;portConstraint=eastwest;newEdgeStyle={&quot;edgeStyle&quot;:&quot;elbowEdgeStyle&quot;,&quot;elbow&quot;:&quot;vertical&quot;,&quot;curved&quot;:0,&quot;rounded&quot;:0};" vertex="1" parent="vACXPowqRHTn4efOU8du-1">
          <mxGeometry x="45" y="313" width="10" height="35" as="geometry" />
        </mxCell>
        <mxCell id="vACXPowqRHTn4efOU8du-3" value="service-miniapp" style="shape=umlLifeline;perimeter=lifelinePerimeter;whiteSpace=wrap;html=1;container=0;dropTarget=0;collapsible=0;recursiveResize=0;outlineConnect=0;portConstraint=eastwest;newEdgeStyle={&quot;edgeStyle&quot;:&quot;elbowEdgeStyle&quot;,&quot;elbow&quot;:&quot;vertical&quot;,&quot;curved&quot;:0,&quot;rounded&quot;:0};" parent="1" vertex="1">
          <mxGeometry x="490" y="40" width="100" height="300" as="geometry" />
        </mxCell>
        <mxCell id="vACXPowqRHTn4efOU8du-4" value="" style="html=1;points=[];perimeter=orthogonalPerimeter;outlineConnect=0;targetShapes=umlLifeline;portConstraint=eastwest;newEdgeStyle={&quot;edgeStyle&quot;:&quot;elbowEdgeStyle&quot;,&quot;elbow&quot;:&quot;vertical&quot;,&quot;curved&quot;:0,&quot;rounded&quot;:0};" parent="vACXPowqRHTn4efOU8du-3" vertex="1">
          <mxGeometry x="45" y="80" width="10" height="30" as="geometry" />
        </mxCell>
        <mxCell id="vACXPowqRHTn4efOU8du-5" value="service-base" style="shape=umlLifeline;perimeter=lifelinePerimeter;whiteSpace=wrap;html=1;container=0;dropTarget=0;collapsible=0;recursiveResize=0;outlineConnect=0;portConstraint=eastwest;newEdgeStyle={&quot;edgeStyle&quot;:&quot;elbowEdgeStyle&quot;,&quot;elbow&quot;:&quot;vertical&quot;,&quot;curved&quot;:0,&quot;rounded&quot;:0};" parent="1" vertex="1">
          <mxGeometry x="610" y="40" width="100" height="300" as="geometry" />
        </mxCell>
        <mxCell id="vACXPowqRHTn4efOU8du-6" value="" style="html=1;points=[];perimeter=orthogonalPerimeter;outlineConnect=0;targetShapes=umlLifeline;portConstraint=eastwest;newEdgeStyle={&quot;edgeStyle&quot;:&quot;elbowEdgeStyle&quot;,&quot;elbow&quot;:&quot;vertical&quot;,&quot;curved&quot;:0,&quot;rounded&quot;:0};" parent="vACXPowqRHTn4efOU8du-5" vertex="1">
          <mxGeometry x="45" y="80" width="10" height="30" as="geometry" />
        </mxCell>
        <mxCell id="vACXPowqRHTn4efOU8du-7" value="/auth/miniapp/qrcode/authQuery?scene=xx" style="html=1;verticalAlign=bottom;endArrow=block;edgeStyle=elbowEdgeStyle;elbow=vertical;curved=0;rounded=0;" parent="1" target="rhNAa3XnDCW6CMJi3sc1-2" edge="1">
          <mxGeometry width="80" relative="1" as="geometry">
            <mxPoint x="95" y="445" as="sourcePoint" />
            <mxPoint x="210" y="444.5" as="targetPoint" />
            <Array as="points">
              <mxPoint x="360" y="445" />
            </Array>
            <mxPoint as="offset" />
          </mxGeometry>
        </mxCell>
        <mxCell id="rhNAa3XnDCW6CMJi3sc1-1" value="return&amp;nbsp;jwtTokenMap" style="html=1;verticalAlign=bottom;endArrow=open;dashed=1;endSize=8;edgeStyle=elbowEdgeStyle;elbow=vertical;curved=0;rounded=0;" edge="1" parent="1" source="rhNAa3XnDCW6CMJi3sc1-2">
          <mxGeometry x="0.0016" relative="1" as="geometry">
            <mxPoint x="95" y="475" as="targetPoint" />
            <Array as="points">
              <mxPoint x="185" y="475" />
              <mxPoint x="195" y="605" />
            </Array>
            <mxPoint x="410" y="475" as="sourcePoint" />
            <mxPoint as="offset" />
          </mxGeometry>
        </mxCell>
        <mxCell id="rhNAa3XnDCW6CMJi3sc1-3" value="扫码" style="html=1;verticalAlign=bottom;endArrow=block;edgeStyle=elbowEdgeStyle;elbow=vertical;curved=0;rounded=0;" edge="1" parent="1" target="aM9ryv3xv72pqoxQDRHE-6">
          <mxGeometry width="80" relative="1" as="geometry">
            <mxPoint x="95" y="183" as="sourcePoint" />
            <mxPoint x="410" y="313" as="targetPoint" />
            <Array as="points">
              <mxPoint x="180" y="183" />
            </Array>
            <mxPoint as="offset" />
          </mxGeometry>
        </mxCell>
        <mxCell id="rhNAa3XnDCW6CMJi3sc1-4" value="return JWT+RealAuth" style="html=1;verticalAlign=bottom;endArrow=open;dashed=1;endSize=8;edgeStyle=elbowEdgeStyle;elbow=vertical;curved=0;rounded=0;" edge="1" parent="1" source="rhNAa3XnDCW6CMJi3sc1-5" target="aM9ryv3xv72pqoxQDRHE-6">
          <mxGeometry x="-0.0665" y="7" relative="1" as="geometry">
            <mxPoint x="370" y="213" as="sourcePoint" />
            <mxPoint x="290" y="213" as="targetPoint" />
            <Array as="points">
              <mxPoint x="320" y="213" />
            </Array>
            <mxPoint as="offset" />
          </mxGeometry>
        </mxCell>
        <mxCell id="rhNAa3XnDCW6CMJi3sc1-6" value="/auth/miniapp/login?wxCode=xx" style="html=1;verticalAlign=bottom;endArrow=block;edgeStyle=elbowEdgeStyle;elbow=vertical;curved=0;rounded=0;" edge="1" parent="1" source="aM9ryv3xv72pqoxQDRHE-6" target="rhNAa3XnDCW6CMJi3sc1-5">
          <mxGeometry x="-0.0016" width="80" relative="1" as="geometry">
            <mxPoint x="230" y="193" as="sourcePoint" />
            <mxPoint x="350" y="193" as="targetPoint" />
            <Array as="points">
              <mxPoint x="315" y="193" />
            </Array>
            <mxPoint as="offset" />
          </mxGeometry>
        </mxCell>
        <mxCell id="rhNAa3XnDCW6CMJi3sc1-7" value="USTB-微认证" style="shape=umlLifeline;perimeter=lifelinePerimeter;whiteSpace=wrap;html=1;container=0;dropTarget=0;collapsible=0;recursiveResize=0;outlineConnect=0;portConstraint=eastwest;newEdgeStyle={&quot;edgeStyle&quot;:&quot;elbowEdgeStyle&quot;,&quot;elbow&quot;:&quot;vertical&quot;,&quot;curved&quot;:0,&quot;rounded&quot;:0};" vertex="1" parent="1">
          <mxGeometry x="740" y="40" width="100" height="610" as="geometry" />
        </mxCell>
        <mxCell id="rhNAa3XnDCW6CMJi3sc1-8" value="" style="html=1;points=[];perimeter=orthogonalPerimeter;outlineConnect=0;targetShapes=umlLifeline;portConstraint=eastwest;newEdgeStyle={&quot;edgeStyle&quot;:&quot;elbowEdgeStyle&quot;,&quot;elbow&quot;:&quot;vertical&quot;,&quot;curved&quot;:0,&quot;rounded&quot;:0};" vertex="1" parent="rhNAa3XnDCW6CMJi3sc1-7">
          <mxGeometry x="45" y="263" width="10" height="40" as="geometry" />
        </mxCell>
        <mxCell id="rhNAa3XnDCW6CMJi3sc1-10" value="/auth/school/authUrl?returnUrl=xx" style="html=1;verticalAlign=bottom;endArrow=block;edgeStyle=elbowEdgeStyle;elbow=vertical;curved=0;rounded=0;" edge="1" parent="1" source="rhNAa3XnDCW6CMJi3sc1-9" target="rhNAa3XnDCW6CMJi3sc1-11">
          <mxGeometry x="-0.0037" width="80" relative="1" as="geometry">
            <mxPoint x="225" y="193" as="sourcePoint" />
            <mxPoint x="420" y="193" as="targetPoint" />
            <Array as="points">
              <mxPoint x="300" y="263" />
              <mxPoint x="315" y="193" />
            </Array>
            <mxPoint as="offset" />
          </mxGeometry>
        </mxCell>
        <mxCell id="rhNAa3XnDCW6CMJi3sc1-12" value="return AuthUrl" style="html=1;verticalAlign=bottom;endArrow=open;dashed=1;endSize=8;edgeStyle=elbowEdgeStyle;elbow=vertical;curved=0;rounded=0;" edge="1" parent="1" source="rhNAa3XnDCW6CMJi3sc1-11" target="rhNAa3XnDCW6CMJi3sc1-9">
          <mxGeometry x="-0.0665" y="7" relative="1" as="geometry">
            <mxPoint x="425" y="283" as="sourcePoint" />
            <mxPoint x="230" y="283" as="targetPoint" />
            <Array as="points">
              <mxPoint x="325" y="283" />
            </Array>
            <mxPoint as="offset" />
          </mxGeometry>
        </mxCell>
        <mxCell id="rhNAa3XnDCW6CMJi3sc1-13" value="authUrl带参+scene" style="html=1;verticalAlign=bottom;endArrow=block;edgeStyle=elbowEdgeStyle;elbow=vertical;curved=0;rounded=0;" edge="1" parent="1" source="rhNAa3XnDCW6CMJi3sc1-9" target="rhNAa3XnDCW6CMJi3sc1-8">
          <mxGeometry x="-0.0037" width="80" relative="1" as="geometry">
            <mxPoint x="230" y="313" as="sourcePoint" />
            <mxPoint x="425" y="313" as="targetPoint" />
            <Array as="points">
              <mxPoint x="305" y="313" />
              <mxPoint x="320" y="243" />
            </Array>
            <mxPoint as="offset" />
          </mxGeometry>
        </mxCell>
        <mxCell id="rhNAa3XnDCW6CMJi3sc1-14" value="redirect：/auth/school/authUrl/callback" style="html=1;verticalAlign=bottom;endArrow=open;dashed=1;endSize=8;edgeStyle=elbowEdgeStyle;elbow=vertical;curved=0;rounded=0;" edge="1" parent="1" source="rhNAa3XnDCW6CMJi3sc1-8" target="rhNAa3XnDCW6CMJi3sc1-9">
          <mxGeometry x="-0.0665" y="7" relative="1" as="geometry">
            <mxPoint x="665" y="333" as="sourcePoint" />
            <mxPoint x="470" y="333" as="targetPoint" />
            <Array as="points">
              <mxPoint x="570" y="333" />
            </Array>
            <mxPoint as="offset" />
          </mxGeometry>
        </mxCell>
        <mxCell id="rhNAa3XnDCW6CMJi3sc1-16" value="/auth/school/authUrl/callback" style="html=1;verticalAlign=bottom;endArrow=block;edgeStyle=elbowEdgeStyle;elbow=vertical;curved=0;rounded=0;" edge="1" parent="1" source="rhNAa3XnDCW6CMJi3sc1-9" target="rhNAa3XnDCW6CMJi3sc1-15">
          <mxGeometry x="-0.0027" width="80" relative="1" as="geometry">
            <mxPoint x="230" y="363" as="sourcePoint" />
            <mxPoint x="415" y="363" as="targetPoint" />
            <Array as="points">
              <mxPoint x="295" y="363" />
              <mxPoint x="310" y="293" />
            </Array>
            <mxPoint as="offset" />
          </mxGeometry>
        </mxCell>
        <mxCell id="rhNAa3XnDCW6CMJi3sc1-17" value="return code+scene" style="html=1;verticalAlign=bottom;endArrow=open;dashed=1;endSize=8;edgeStyle=elbowEdgeStyle;elbow=vertical;curved=0;rounded=0;" edge="1" parent="1" source="rhNAa3XnDCW6CMJi3sc1-15" target="rhNAa3XnDCW6CMJi3sc1-9">
          <mxGeometry x="-0.0665" y="7" relative="1" as="geometry">
            <mxPoint x="415" y="383" as="sourcePoint" />
            <mxPoint x="250" y="383" as="targetPoint" />
            <Array as="points">
              <mxPoint x="320" y="383" />
            </Array>
            <mxPoint as="offset" />
          </mxGeometry>
        </mxCell>
      </root>
    </mxGraphModel>
  </diagram>
</mxfile>
